<?xml version="1.0" encoding="utf-8"?>
<!-- Svg Vector Icons : http://www.onlinewebfonts.com/icon -->
<!DOCTYPE svg PUBLIC "-//W3C//DTD SVG 1.1//EN" "http://www.w3.org/Graphics/SVG/1.1/DTD/svg11.dtd">
<svg version="1.1" xmlns="http://www.w3.org/2000/svg" xmlns:xlink="http://www.w3.org/1999/xlink" x="0px" y="0px" viewBox="0 0 1000 1000" enable-background="new 0 0 1000 1000" xml:space="preserve">
<metadata> Svg Vector Icons : http://www.onlinewebfonts.com/icon </metadata>
<g><path d="M500,990C229.8,990,10,770.2,10,500C10,229.8,229.8,10,500,10c270.2,0,490,219.8,490,490C990,770.2,770.2,990,500,990z M500,58.9C256.8,58.9,58.9,256.8,58.9,500c0,243.2,197.9,441.1,441.1,441.1c243.2,0,441.1-197.9,441.1-441.1C941.1,256.8,743.2,58.9,500,58.9z"/><path d="M500,990c-163.3,0-291.1-215.2-291.1-490c0-274.8,127.9-490,291.1-490c163.2,0,291.1,215.2,291.1,490C791.1,774.8,663.2,990,500,990z M500,58.9c-131.3,0-242.3,202-242.3,441.1c0,239.1,110.9,441.1,242.3,441.1c131.3,0,242.3-202,242.3-441.1C742.3,260.9,631.3,58.9,500,58.9z"/><path d="M475.6,34.4h48.9v931.1h-48.9V34.4z"/><path d="M79.8,276.6h840.4v48.9H79.8V276.6z"/><path d="M28,475.6h944v48.9H28V475.6z"/><path d="M73.3,674.6h853.5v48.9H73.3V674.6L73.3,674.6z"/></g>
</svg>