<?xml version="1.0" standalone="no"?>
<!DOCTYPE svg PUBLIC "-//W3C//DTD SVG 20010904//EN"
 "http://www.w3.org/TR/2001/REC-SVG-20010904/DTD/svg10.dtd">
<svg version="1.0" xmlns="http://www.w3.org/2000/svg"
 width="599.000000pt" height="813.000000pt" viewBox="0 0 599.000000 813.000000"
 preserveAspectRatio="xMidYMid meet">

<g transform="translate(0.000000,813.000000) scale(0.100000,-0.100000)"
fill="#000000" stroke="none">
<path d="M3398 6406 c-59 -45 -140 -111 -180 -146 -40 -35 -113 -93 -163 -130
-49 -37 -133 -105 -185 -151 -205 -181 -602 -483 -788 -601 -194 -123 -422
-282 -504 -352 -113 -97 -277 -227 -345 -275 -80 -56 -101 -97 -83 -161 6 -25
16 -103 20 -175 5 -91 14 -148 29 -190 30 -83 62 -215 111 -450 22 -110 63
-290 89 -400 27 -110 65 -288 86 -395 21 -107 51 -239 66 -292 43 -144 45
-138 -54 -138 -46 0 -106 -7 -134 -15 -94 -28 -230 -152 -269 -244 -22 -53
-18 -185 6 -237 40 -82 137 -154 276 -204 32 -12 82 -30 110 -40 74 -28 278
-60 376 -60 187 0 255 50 309 227 18 56 20 84 16 207 -6 189 -20 286 -56 400
-16 53 -33 113 -36 133 -4 21 -17 89 -31 151 -13 62 -36 190 -50 285 -14 95
-34 213 -45 262 -11 50 -33 167 -49 261 -35 199 -63 313 -120 477 -22 65 -37
123 -34 129 4 5 34 22 68 37 33 16 91 47 129 69 37 23 112 64 167 92 55 27
123 65 152 84 29 18 117 65 194 104 124 62 220 118 357 210 20 14 67 52 103
85 35 33 67 57 69 55 3 -3 10 -31 16 -64 6 -32 24 -113 41 -179 22 -87 33
-169 43 -300 15 -187 25 -234 220 -1008 28 -113 127 -370 191 -499 24 -48 44
-90 44 -92 0 -3 -31 -2 -68 1 -254 21 -489 -139 -531 -360 -33 -181 118 -372
349 -441 120 -36 329 -14 492 51 173 69 285 163 355 299 71 136 77 169 70 404
-5 181 -9 215 -32 295 -14 50 -32 124 -40 165 -64 332 -107 505 -194 775 -168
521 -245 1058 -291 2045 -12 249 -29 327 -82 364 -44 31 -77 19 -190 -68z"/>
<path d="M0 60 l0 -60 2995 0 2995 0 0 60 0 60 -2995 0 -2995 0 0 -60z"/>
</g>
</svg>
